<?xml version="1.0" standalone="no"?>
<!DOCTYPE svg PUBLIC "-//W3C//DTD SVG 20010904//EN"
 "http://www.w3.org/TR/2001/REC-SVG-20010904/DTD/svg10.dtd">
<svg version="1.0" xmlns="http://www.w3.org/2000/svg"
 width="500.000000pt" height="500.000000pt" viewBox="0 0 500.000000 500.000000"
 preserveAspectRatio="xMidYMid meet">

<g transform="translate(0.000000,500.000000) scale(0.100000,-0.100000)"
fill="#000000" stroke="none">
<path d="M2330 4920 c-593 -40 -1179 -333 -1566 -783 -291 -338 -476 -742
-546 -1187 -18 -115 -17 -537 1 -650 98 -617 409 -1141 896 -1512 315 -239
738 -406 1136 -448 125 -13 386 -13 507 1 216 23 506 103 688 189 l82 38 228
-229 c126 -126 232 -228 236 -226 4 1 57 51 118 111 l111 110 -205 202 -204
202 79 57 c102 73 298 262 393 379 197 243 345 525 427 814 68 243 84 364 83
642 0 265 -17 392 -80 618 -222 792 -848 1403 -1648 1607 -231 58 -492 82
-736 65z m383 -325 c406 -43 777 -206 1100 -485 64 -55 120 -108 125 -118 6
-11 -55 -339 -194 -1027 -112 -555 -209 -1046 -216 -1089 -8 -44 -18 -81 -24
-83 -5 -2 -232 442 -504 987 -272 545 -498 989 -501 988 -4 -2 -225 -439 -492
-973 -267 -533 -492 -979 -500 -990 -13 -16 -16 -17 -20 -5 -2 8 -102 503
-221 1100 l-217 1085 73 69 c313 295 713 487 1113 535 197 24 294 25 478 6z
m-1406 -3519 l6 -40 -29 21 c-52 37 -215 195 -292 283 -179 205 -325 477 -402
749 -53 188 -72 325 -72 531 0 262 35 466 119 690 34 92 124 281 146 309 9 10
74 -300 264 -1245 139 -693 256 -1277 260 -1298z m2979 2408 c195 -402 246
-874 143 -1317 -67 -285 -214 -579 -403 -806 -100 -120 -328 -332 -342 -318
-3 3 -1 22 5 43 11 44 477 2360 497 2469 6 39 12 72 13 75 4 12 37 -44 87
-146z m-1253 -1479 c427 -852 524 -1052 514 -1063 -8 -7 -74 -43 -148 -81
-247 -125 -501 -192 -810 -216 -185 -14 -502 30 -715 100 -111 37 -434 190
-434 206 0 19 1052 2110 1059 2107 5 -2 245 -475 534 -1053z"/>
<path d="M2428 2435 c-54 -54 -38 -144 30 -172 104 -44 193 88 113 168 -40 39
-106 41 -143 4z"/>
</g>
</svg>
